Genre:Fantasy | Horror | Mystery 
Language:English
IMDb:http://www.imdb.com/title/tt1486185/
Source:Relizlab/Imagine Thx.

Format : MPEG-4
Format profile : Base Media
Codec ID : isom
File size : 717 MiB
Duration : 1h 35mn
Overall bit rate : 1 054 Kbps
Movie name : Red.Riding.Hood.2011.TS.x264.Feel-Free

Video
Format settings, CABAC : Yes
Format settings, ReFrames : 4 frames
Format settings, GOP : N=1
Codec ID : avc1
Codec ID/Info : Advanced Video Coding
Duration : 1h 35mn
Bit rate mode : Variable
Bit rate : 897 Kbps
Width : 720 pixels
Height : 304 pixels
Display aspect ratio : 2.35:1
Frame rate mode : Constant
Frame rate : 25.000 fps
Color space : YUV
Chroma subsampling : 4:2:0
Bit depth : 8 bits
Scan type : Progressive
Bits/(Pixel*Frame) : 0.164
Stream size : 610 MiB (85%)
Writing library : x264

Audio
ID : 2
Format : AAC
Format/Info : Advanced Audio Codec
Format version : Version 4
Format profile : LC
Codec ID : 40
Duration : 1h 35mn
Bit rate mode : Variable
Bit rate : 152 Kbps
Channel(s) : 2 channels
Channel positions : Front: L R
Sampling rate : 44.1 KHz
Stream size : 103 MiB (14%)


Plot:
Set in a medieval village that is haunted by a werewolf, a young girl falls for an orphaned woodcutter, much to her family's displeasure. 
 
http://www.pix2links.com/images/55343627471201265371.png 
http://www.pix2links.com/images/02030811282745086097.png 
http://www.pix2links.com/images/34685885208022853558.png 
http://www.pix2links.com/images/09460677703993539311.png 
http://www.pix2links.com/images/23894291750659340445.png

Greets:

INK,CRYS,IMAGINE,LKRG,FXG,3Li,FLAWL3SS,TA,iLLUSiON,ViSiON,DTRG SAFCuk009,LU,TheFalcon007,MYSTiC,PrisM,Noir,WBZ,LAP,Rx,Kingdom,SAFCuk009+Fabreezy,HDLiTE,TWiZTED,ExtraTorrentRG.ELEKTRI4KA,MAGNAT,CM8
And to all the other p2p grps past and present 